#define wlcursor.xbm_width 16
#define wlcursor.xbm_height 16
static char wlcursor.xbm_bits[] = {
   0x00, 0x00, 0x00, 0x00, 0x0a, 0x28, 0x0a, 0x24, 0x0a, 0x2a, 0x0a, 0x2d,
   0xfb, 0x6e, 0x00, 0x00, 0xbb, 0x6f, 0x5a, 0x28, 0x2a, 0x28, 0x12, 0x28,
   0x0a, 0x28, 0x00, 0x00, 0x00, 0x00, 0x00, 0x00};
