#define wlmask.xbm_width 16
#define wlmask.xbm_height 16
static char wlmask.xbm_bits[] = {
   0x00, 0x00, 0x00, 0x00, 0x0e, 0x38, 0x0e, 0x3c, 0x0e, 0x3e, 0x0e, 0x3f,
   0xff, 0x7f, 0xff, 0x7f, 0xff, 0x7f, 0x7e, 0x38, 0x3e, 0x38, 0x1e, 0x38,
   0x0e, 0x38, 0x00, 0x00, 0x00, 0x00, 0x00, 0x00};
